<svg height="64" viewBox="0 0 64 64" width="64" xmlns="http://www.w3.org/2000/svg"><g fill="#000" fill-rule="evenodd"><path d="m42 21c0-8.832-5.346-15-13-15s-13 6.168-13 15c0 7.566 3.956 15.888 9.66 18.306-1.012.916-1.66 2.225-1.66 3.694 0 .553.448 1 1 1h.944c-1.017.998-1.944 2.353-1.944 4 0 2.102 1.955 3.501 3.68 4.735 1.034.74 2.32 1.66 2.32 2.265 0 1.278-2.275 2.623-3.377 3.074-.511.209-.756.792-.548 1.303.158.389.531.623.925.623.125 0 .253-.023.376-.073.474-.193 4.624-1.964 4.624-4.927 0-1.632-1.604-2.78-3.156-3.891-1.333-.954-2.844-2.036-2.844-3.109 0-1.818 2.184-3.408 3.249-4h3.751c.552 0 1-.447 1-1 0-1.469-.648-2.778-1.66-3.694 5.704-2.418 9.66-10.74 9.66-18.306zm-10.171 21h-5.657c.413-1.164 1.525-2 2.829-2s2.415.836 2.828 2zm-2.829-4c-5.654 0-11-8.262-11-17 0-7.775 4.42-13 11-13s11 5.225 11 13c0 8.738-5.346 17-11 17z"/><path d="m40.217 37.36c.088 0 .178-.012.267-.036 3.804-1.052 7.621-3.29 10.472-6.141 6.16-6.16 6.733-14.193 1.394-19.533-2.987-2.986-7.049-4.22-11.144-3.396-.541.109-.892.638-.782 1.179.109.541.633.894 1.178.782 3.475-.701 6.791.31 9.333 2.85 4.579 4.579 4.019 11.292-1.394 16.705-2.614 2.613-6.109 4.664-9.591 5.627-.532.147-.844.698-.697 1.23.123.443.525.733.964.733z"/><path d="m29 10c-5.467 0-9 4.317-9 11 0 .553.448 1 1 1s1-.447 1-1c0-5.552 2.682-9 7-9 .552 0 1-.447 1-1s-.448-1-1-1z"/><path d="m9.044 31.184c2.174 2.174 4.849 3.967 7.737 5.186.127.054.259.079.388.079.39 0 .761-.229.922-.611.215-.509-.024-1.096-.533-1.31-2.652-1.12-5.107-2.765-7.101-4.758-5.412-5.413-5.972-12.126-1.394-16.705 2.092-2.092 4.808-3.163 7.661-3.055.549.049 1.019-.404 1.042-.956.024-.552-.404-1.019-.956-1.042-3.426-.152-6.668 1.146-9.161 3.639-5.338 5.339-4.765 13.372 1.395 19.533z"/><path d="m11.853 14.438c-.391-.391-1.023-.391-1.414 0-3.816 3.815-3.269 9.295 1.394 13.958.195.195.451.293.707.293s.512-.098.707-.293c.391-.391.391-1.023 0-1.414-3.862-3.862-4.396-8.128-1.394-11.13.39-.39.39-1.023 0-1.414z"/></g></svg>