<svg enable-background="new 0 0 512 512" viewBox="0 0 512 512" xmlns="http://www.w3.org/2000/svg"><path d="m419.271 99.222s.135 1.872.176 5.286c.005.427.01.878.016 1.354.003.479.026.955-.024 1.562-.096 1.161-.201 2.428-.315 3.798-.126 1.361-.244 2.893-.42 4.424-.181 1.503-.354 3.119-.592 4.808-.925 6.77-2.448 14.968-5.078 24.17-2.609 9.208-6.279 19.452-11.334 30.242-5.037 10.797-11.534 22.075-19.505 33.356-.967 1.439-2.029 2.806-3.074 4.211-.526.701-1.054 1.403-1.584 2.108l-.798 1.06-.2.266c.629-.579-.971.939-.835.822l-.083.111-.333.443c-1.766 2.376-3.628 4.7-5.469 7.094l-.174.224-.245.276-.494.554-.992 1.11c-.673.732-1.348 1.467-2.024 2.203-1.367 1.469-2.742 2.945-4.123 4.428l-1.042 1.108-.979 1.003c-.651.673-1.315 1.336-1.985 1.996-1.34 1.324-2.687 2.654-4.039 3.99-10.927 10.585-23.337 20.443-36.816 29.197-13.486 8.742-28.065 16.337-43.254 22.452-15.179 6.141-30.958 10.811-46.76 13.932-15.808 3.106-31.634 4.661-46.912 4.739-15.281.084-30-1.275-43.677-3.714-6.845-1.162-13.419-2.748-19.704-4.379-6.269-1.785-12.26-3.582-17.886-5.72-1.406-.513-2.797-1.021-4.174-1.524-1.372-.506-2.705-1.112-4.029-1.654-2.646-1.1-5.21-2.207-7.688-3.317-2.469-1.145-4.843-2.337-7.136-3.495-1.143-.579-2.27-1.15-3.38-1.712-1.107-.561-2.168-1.205-3.223-1.789-4.203-2.398-8.093-4.622-11.548-6.98-3.469-2.316-6.627-4.406-9.354-6.545-1.361-1.056-2.648-2.056-3.86-2.996-1.188-.967-2.301-1.873-3.336-2.716-2.035-1.742-3.713-3.3-5.067-4.557-2.705-2.514-4.072-3.95-4.072-3.95-12.723-13.369-12.199-34.52 1.17-47.243 5.584-5.315 12.527-8.318 19.646-9.039l4.008-.405s1.68-.17 4.688-.312c1.503-.07 3.348-.165 5.454-.187 1.066-.062 2.213-.129 3.435-.201 1.199-.046 2.472-.094 3.818-.146 2.649-.025 5.621-.284 8.749-.385 3.118-.064 6.515-.382 10.03-.523 3.521-.156 7.267-.546 11.098-.725 3.883-.419 7.854-.597 11.988-1.081 1.026-.102 2.063-.205 3.111-.309.519-.042 1.041-.085 1.566-.128.526-.065 1.054-.13 1.585-.196 1.055-.129 2.121-.26 3.196-.391 1.064-.108 2.138-.217 3.221-.327 2.169-.317 4.357-.625 6.559-.874.55-.068 1.102-.136 1.656-.204.554-.092 1.11-.184 1.668-.276 1.109-.162 2.227-.325 3.352-.489 8.975-1.36 18.222-3.008 27.597-5.02 18.752-3.998 38.018-9.44 56.812-16.411 9.393-3.495 18.678-7.33 27.756-11.465 9.091-4.115 17.943-8.568 26.566-13.147 1.068-.59 2.132-1.178 3.191-1.763.53-.295 1.064-.584 1.607-.862l.81-.421.692-.374c.926-.494 1.847-.987 2.763-1.476l1.393-.727.71-.349.355-.174.179-.088.237-.155c2.533-1.645 4.997-3.317 7.507-4.888l.468-.296.117-.074c.203-.179-1.332 1.277-.638.634l.188-.116.752-.462 1.502-.92c1.003-.616 1.999-1.228 2.988-1.836 7.898-4.924 15.478-9.874 22.497-14.778 7.029-4.892 13.565-9.678 19.456-14.122 5.907-4.431 11.116-8.549 15.525-12.017 1.083-.877 2.16-1.691 3.154-2.475.98-.764 1.884-1.417 2.742-2.07.862-.65 1.66-1.251 2.391-1.801.373-.245.76-.599 1.121-.905.361-.31.704-.604 1.028-.881 2.593-2.221 4.089-3.355 4.089-3.355 11.509-8.723 27.91-6.464 36.633 5.045 3.18 4.191 4.896 9.021 5.239 13.911z" fill="#ffae2c"/><path d="m43.534 229.807c-4.094 9.348-7.719 10.585-17.335 6.374-9.617-4.211-11.166-7.714-7.073-17.062s28.502 1.34 24.408 10.688z" fill="#b28e7f"/><path d="m440.412 111.232s.448 2.07 1.037 5.879c.073.476.151.98.233 1.511.08.535.181 1.063.222 1.749.077 1.313.161 2.745.252 4.294.075 1.541.188 3.271.234 5.01.036 1.708.1 3.541.103 5.467.043 7.711-.356 17.114-1.832 27.815-1.452 10.704-3.924 22.734-7.857 35.594-3.912 12.865-9.379 26.501-16.492 40.373-.852 1.761-1.821 3.458-2.766 5.194-.477.866-.955 1.736-1.434 2.608l-.723 1.311-.182.329c.611-.747-.936 1.204-.803 1.051l-.075.137-.301.548c-1.595 2.936-3.307 5.829-4.984 8.797l-.158.277-.23.347-.464.697-.932 1.398c-.635.925-1.273 1.853-1.911 2.783-1.294 1.858-2.596 3.726-3.903 5.603l-.988 1.404-.935 1.276c-.621.855-1.257 1.701-1.9 2.545-1.287 1.693-2.58 3.393-3.879 5.1-10.527 13.565-22.827 26.553-36.497 38.478-13.679 11.912-28.763 22.717-44.763 31.964-15.985 9.275-32.873 17.001-50.035 23.002-17.17 5.983-34.607 10.237-51.667 12.753-17.062 2.524-33.725 3.344-49.396 2.793-7.833-.211-15.431-.937-22.714-1.761-7.288-.998-14.269-2.054-20.895-3.548-1.653-.35-3.288-.697-4.906-1.039-1.613-.347-3.199-.812-4.765-1.208-3.132-.809-6.173-1.637-9.118-2.484-2.941-.887-5.783-1.841-8.53-2.771-1.369-.465-2.719-.924-4.049-1.376-1.326-.451-2.614-1.002-3.886-1.486-2.542-.983-4.981-1.989-7.321-2.959-2.349-.921-4.566-2.007-6.692-3.005-4.245-2.036-8.106-3.87-11.493-5.827-3.399-1.906-6.386-3.658-8.955-5.216-2.545-1.65-4.668-3.121-6.381-4.309-3.422-2.38-5.178-3.767-5.178-3.767-16.342-12.916-19.119-36.634-6.203-52.976 5.395-6.826 12.675-11.286 20.515-13.223l4.414-1.09s1.85-.458 5.189-1.094c1.668-.316 3.714-.713 6.07-1.099 2.377-.481 5.076-.997 8.044-1.518 2.956-.449 6.236-1.211 9.715-1.821 3.474-.567 7.219-1.462 11.125-2.179 3.91-.734 8.034-1.765 12.286-2.574 2.136-.53 4.307-1.034 6.51-1.51 2.203-.463 4.444-1.052 6.714-1.604 1.131-.277 2.273-.557 3.427-.84.574-.13 1.15-.26 1.729-.392.577-.156 1.157-.313 1.74-.471 1.159-.312 2.328-.627 3.508-.945 1.172-.29 2.355-.582 3.547-.877 1.183-.344 2.375-.692 3.577-1.042 1.195-.324 2.4-.65 3.613-.978.604-.163 1.21-.327 1.818-.492.605-.19 1.211-.382 1.82-.573 1.216-.378 2.441-.719 3.668-1.08 9.812-2.946 19.883-6.258 30.038-9.997 20.319-7.448 40.981-16.592 60.873-27.37 9.94-5.398 19.706-11.16 29.192-17.224 9.504-6.043 18.688-12.426 27.595-18.914 1.1-.829 2.195-1.655 3.286-2.478.546-.414 1.095-.822 1.658-1.219l.838-.599.714-.528c.956-.7 1.907-1.396 2.853-2.089l1.441-1.034.738-.503.37-.251.186-.127.24-.211c2.569-2.241 5.057-4.501 7.611-6.656l.476-.406.119-.101c.199-.232-1.285 1.638-.613.81l.192-.159.767-.635 1.532-1.267c1.022-.848 2.038-1.69 3.047-2.526 8.042-6.758 15.726-13.493 22.789-20.089 7.076-6.583 13.618-12.971 19.495-18.872 5.896-5.891 11.062-11.319 15.437-15.896 1.07-1.152 2.144-2.233 3.131-3.267.974-1.01 1.88-1.882 2.735-2.749.86-.863 1.656-1.661 2.385-2.393.377-.333.754-.79 1.108-1.19.355-.404.691-.787 1.009-1.148 2.545-2.894 4.036-4.399 4.036-4.399 11.473-11.577 30.159-11.66 41.736-.187 4.222 4.188 6.908 9.312 8.069 14.721z" fill="#ffb93e"/><path d="m41.321 316.881c-3.088 11.096-32.061 3.033-28.973-8.063s6.942-13.055 18.358-9.878 13.703 6.844 10.615 17.941z" fill="#a07562"/><path d="m423.856 19.5c-1.212-.337-2.4-.381-3.555-.228-1.196-1.017-2.545-1.899-4.104-2.582-5.976-2.617-12.472 3.161-15.778 6.783-10.06 11.019 12.579 25.473-3.508 52.089-2.267 3.75-.334 13.409 3.126 14.924 3.903 1.709 8.502.464 11.92-2.85-.098.238-.19.473-.292.713-1.937 4.551 1.759 15.036 5.866 16.179 6.099 1.697 12.74-2.508 15.437-9.704 7.582-20.237 15.682-68.424-9.112-75.324z" fill="#8e6049"/><path d="m476.332 96.522s1.03 1.779 2.73 5.134c.212.419.437.863.674 1.331.236.474.487.923.742 1.582.484 1.244 1.011 2.601 1.582 4.068.554 1.462 1.201 3.101 1.79 4.753.568 1.62 1.198 3.348 1.807 5.186 2.457 7.346 5.053 16.441 7.081 27.118 2.052 10.671 3.6 22.928 4.083 36.446.504 13.516-.167 28.27-2.263 43.793-.22 1.952-.566 3.886-.879 5.847-.16.98-.321 1.964-.483 2.95l-.245 1.484-.062.372c.312-.966-.46 1.528-.389 1.324l-.026.153-.103.613c-.536 3.278-1.186 6.561-1.783 9.899l-.057.313-.1.408-.202.819-.408 1.643c-.286 1.094-.573 2.191-.861 3.291-.591 2.202-1.185 4.415-1.782 6.639l-.456 1.665-.451 1.522c-.297 1.018-.611 2.033-.931 3.049-.639 2.035-1.282 4.08-1.927 6.133-5.367 16.36-12.461 32.819-21.195 48.748-8.751 15.916-19.155 31.285-30.915 45.533-11.73 14.275-24.831 27.408-38.75 39.054-13.917 11.651-28.655 21.815-43.647 30.242-14.989 8.438-30.187 15.18-44.94 20.326-7.351 2.632-14.666 4.708-21.72 6.592-7.123 1.72-13.977 3.287-20.66 4.327-1.659.28-3.3.558-4.924.832-1.621.27-3.258.421-4.853.63-3.196.399-6.314.75-9.349 1.052-3.047.26-6.026.426-8.907.582-1.438.076-2.854.151-4.25.225-1.392.075-2.785.043-4.139.067-5.433.023-10.465.05-15.147-.293-4.672-.295-8.916-.536-12.766-1.067-1.915-.252-3.727-.49-5.433-.714-1.696-.26-3.287-.503-4.766-.729-2.956-.53-5.46-1.075-7.48-1.515-4.04-.881-6.173-1.473-6.173-1.473-19.861-5.509-31.495-26.076-25.986-45.936 2.501-9.015 8.104-16.335 15.335-21.127l3.684-2.434s1.564-1.034 4.457-2.744c1.446-.854 3.217-1.91 5.287-3.041 1.02-.622 2.117-1.291 3.286-2.004 1.161-.678 2.394-1.399 3.697-2.161 2.608-1.427 5.407-3.261 8.45-5.029 3.054-1.726 6.244-3.858 9.652-5.888 3.405-2.047 6.904-4.452 10.605-6.707 3.62-2.518 7.46-4.855 11.291-7.595.961-.662 1.933-1.331 2.914-2.006.491-.327.985-.656 1.481-.986.485-.353.973-.707 1.462-1.064.975-.707 1.959-1.421 2.951-2.141.995-.694 1.998-1.393 3.01-2.099.985-.748 1.978-1.503 2.979-2.263 1.003-.736 2.014-1.477 3.033-2.225.507-.372 1.016-.745 1.527-1.119.498-.397.998-.796 1.499-1.196 1.008-.777 2.023-1.559 3.045-2.346 8.124-6.332 16.338-13.142 24.44-20.416 8.101-7.273 16.125-14.965 23.868-23.082 7.747-8.112 15.205-16.645 22.324-25.436 14.198-17.62 26.928-36.365 37.854-55.126.669-1.181 1.336-2.357 2-3.528.331-.587.668-1.172 1.02-1.749l.521-.869.429-.753c.577-.998 1.151-1.992 1.722-2.98l.878-1.482.458-.735.23-.367.115-.185.136-.287c1.468-3.057 2.863-6.099 4.346-9.071l.275-.558.069-.139c.103-.301-.639 2.095-.3 1.03l.109-.218.437-.871c.293-.581.584-1.16.875-1.737.583-1.16 1.161-2.312 1.736-3.456 4.541-9.201 8.732-18.201 12.401-26.802 3.686-8.595 6.951-16.771 9.806-24.233 2.878-7.459 5.277-14.204 7.313-19.88.486-1.418 1-2.772 1.459-4.051.455-1.247.898-2.321 1.304-3.385.412-1.059.794-2.039 1.143-2.937.198-.413.349-.982.501-1.479.152-.502.296-.978.432-1.428 1.09-3.6 1.795-5.531 1.795-5.531 7.306-20.002 29.444-30.293 49.445-22.987 8.814 3.217 15.765 9.358 20.133 16.885z" fill="#ffce6c"/><path d="m469.49 193.647s.621 2.883 1.249 7.87c.082.624.171 1.281.241 1.968.038.344.077.695.116 1.055.018.384.036.777.055 1.178.083 1.61.093 3.351.14 5.231.023 1.867.03 3.903-.022 5.984-.135 2.045-.277 4.195-.425 6.439-.287 4.516-1.067 9.312-1.944 14.416-.194 1.285-.499 2.551-.795 3.839-.307 1.287-.617 2.59-.931 3.907-.652 2.63-1.285 5.341-2.187 7.999-.842 2.682-1.738 5.401-2.676 8.146-1.024 2.703-2.141 5.408-3.259 8.142-.589 1.352-1.107 2.749-1.768 4.076-.648 1.335-1.297 2.673-1.948 4.014-.664 1.335-1.33 2.673-1.996 4.012-.649 1.35-1.382 2.651-2.134 3.943-1.474 2.6-2.985 5.179-4.501 7.739-1.61 2.499-3.251 4.962-4.905 7.385-1.603 2.459-3.384 4.761-5.138 7.033-1.777 2.255-3.46 4.534-5.303 6.624-3.675 4.189-7.232 8.212-10.949 11.702-.916.881-1.82 1.751-2.71 2.607-.897.847-1.757 1.701-2.678 2.472-1.835 1.546-3.557 3.074-5.29 4.461-3.371 2.862-6.709 5.206-9.663 7.258-1.487 1.016-2.856 1.981-4.168 2.819-1.339.811-2.564 1.552-3.696 2.192-2.238 1.305-4.04 2.263-5.273 2.906-1.236.64-1.91.959-1.91.959-4.046 1.915-8.879.187-10.793-3.859-1.146-2.421-.988-5.122.191-7.313l.14-.255s.342-.626.984-1.8c.655-1.156 1.62-2.838 2.905-4.891.63-1.04 1.354-2.158 2.139-3.371.734-1.263 1.565-2.584 2.437-4.003 1.751-2.83 3.824-5.897 5.905-9.357 1.042-1.729 2.211-3.445 3.369-5.258 1.13-1.835 2.268-3.743 3.482-5.66 2.484-3.794 4.854-7.935 7.463-12.07.675-1.019 1.279-2.095 1.897-3.171.63-1.066 1.265-2.14 1.903-3.22.649-1.07 1.302-2.147 1.958-3.229.665-1.076 1.247-2.206 1.889-3.305 1.24-2.225 2.56-4.421 3.843-6.647 1.214-2.262 2.444-4.524 3.711-6.765 1.308-2.222 2.403-4.543 3.621-6.796 1.192-2.264 2.457-4.486 3.528-6.771 1.13-2.259 2.278-4.493 3.429-6.696 1.043-2.244 2.103-4.453 3.185-6.617 1.122-2.153 2.05-4.33 3.039-6.444.5-1.057.994-2.103 1.482-3.136.508-1.029.999-2.052 1.423-3.078.887-2.042 1.776-4.031 2.668-5.955.963-1.908 1.68-3.809 2.458-5.623.807-1.818 1.581-3.56 2.316-5.217.738-1.637 1.309-3.168 1.962-4.631.653-1.455 1.23-2.836 1.836-4.112.149-.321.295-.635.438-.943.129-.338.254-.669.377-.992.24-.647.492-1.261.728-1.844 1.861-4.67 3.186-7.305 3.186-7.305 2.038-4.053 6.975-5.687 11.028-3.649 2.298 1.152 3.826 3.279 4.341 5.607z" fill="#ffdf95"/><path d="m170.116 433.753c1.149 11.461-1.732 14.684-13.522 15.866s-15.253-1.405-16.402-12.866 1.732-14.684 13.522-15.866 15.253 1.405 16.402 12.866z" fill="#8e6049"/><path d="m443.63 99.363c6.299-.631 10.962-6.959 10.863-14.644-.277-21.609 16.343-55.164-6.57-66.884-27.125-13.875-48.45 5.186-49.697 10.578-3.794 16.407 25.149 19.054 34.278 64.951.966 4.85 6.884 6.424 11.126 5.999z" fill="#966c5a"/><path d="m440.41 50.436c-7.289 11.821.008 49.249 3.22 48.927 6.299-.632 23.078-91.575-3.22-48.927z" fill="#18937e"/></svg>