<svg enable-background="new 0 0 64 64" height="64" viewBox="0 0 64 64" width="64" xmlns="http://www.w3.org/2000/svg"><path d="m29.283 52.51-.344 5.596s-1.291 1.721-2.496-.173l-.345-5.939z" fill="#b7714e"/><path d="m26.235 54.156 1.413 1.403 1.494-.952.141-2.303-3.184-.517z" fill="#804f21"/><path d="m6.246 33.191-.266 4.567s-.995 1.405-1.926-.141l-.264-4.849z" fill="#b7714e"/><path d="m3.843 33.747 2.245 2.161.158-2.717-2.456-.423z" fill="#804f21"/><path d="m3.632 27.5.129 5.556 23.887 21.563 29.306-16.398.775-5.165-22.725-17.047z" fill="#b7714e"/><path d="m58.03 41.836 3.185-20.663-21.7-13.562-1.928.43-1.13 9.431 20.755 16.1-1.118 8.006s.903 1.291 1.936.258z" fill="#b7714e"/><g fill="#823827"><path d="m5.355 23.876c-.47.388-.504 3.063-.116 3.966.382.891 19.587 16.383 21.498 17.884.904.71 1.162 1.484 4.972-.452 4.269-2.173 23.342-11.451 24.487-12.342.581-.454.646-.712.813-2.52.231-2.497-.619-3.141-.619-3.141s-6.029-4.619-10.916-7.877c-4.648-3.099-8.587-5.616-8.587-5.616s-.984-.009-4.403 1.153c-3.983 1.353-25.644 7.718-27.129 8.945z"/><path d="m40.253 12.088c.809.189 6.231 3.646 7.482 5.24 1.312 1.672-4.475 4.633-6.789 4.025-1.952-.512-7.94-5.089-8.325-5.545-.386-.455-1.236-1.215 2.577-2.924 3.819-1.708 4.243-.987 5.055-.796z"/><path d="m50.281 19.189c.81.189 6.232 3.646 7.483 5.24 1.312 1.671-4.475 4.633-6.789 4.025-1.953-.512-7.947-5.089-8.332-5.545-.386-.455-1.236-1.215 2.583-2.924s4.245-.986 5.055-.796z"/></g><path d="m5.556 23.275c-.47.388-.504 3.063-.116 3.966.382.891 19.587 16.386 21.498 17.887.904.71 1.162 1.484 4.972-.452 4.268-2.173 22.544-11.053 23.689-11.945.581-.454.646-.712.813-2.52.231-2.497-.619-2.841-.619-2.841s-5.83-4.619-10.717-7.877c-4.648-3.099-8.587-5.616-8.587-5.616s-.387-.71-3.805.452c-3.983 1.354-25.644 7.72-27.128 8.946z" fill="#e0f1f8"/><path d="m39.257 12.789c.809.189 6.231 3.646 7.482 5.24 1.312 1.672-4.475 4.633-6.789 4.025-1.952-.512-7.945-5.089-8.33-5.545-.386-.455-1.236-1.215 2.582-2.924 3.819-1.709 4.243-.987 5.055-.796z" fill="#84969f"/><path d="m49.285 19.89c.81.189 6.232 3.646 7.483 5.24 1.312 1.671-4.475 4.633-6.789 4.025-1.953-.512-7.947-5.089-8.332-5.545-.386-.455-1.236-1.215 2.583-2.924s4.245-.986 5.055-.796z" fill="#84969f"/><path d="m39.556 12.188c.809.189 6.231 3.646 7.482 5.24 1.312 1.672-4.475 4.633-6.789 4.025-1.952-.512-7.943-5.089-8.328-5.545-.386-.455-1.236-1.215 2.58-2.924 3.818-1.708 4.243-.986 5.055-.796z" fill="#abc0cb"/><path d="m39.432 12.485c.7.164 4.697 2.756 5.779 4.137 1.135 1.446-3.873 4.01-5.877 3.484-1.69-.444-6.179-4.005-6.512-4.399s-1.069-1.053 2.232-2.532c3.307-1.479 3.675-.854 4.378-.69z" fill="#e0f1f8"/><path d="m49.584 19.29c.81.189 6.232 3.646 7.483 5.24 1.312 1.671-4.475 4.633-6.789 4.025-1.953-.512-7.947-5.089-8.332-5.545-.386-.455-1.236-1.215 2.583-2.924s4.244-.987 5.055-.796z" fill="#c9d8df"/><path d="m49.46 19.586c.701.164 5.395 3.155 6.478 4.537 1.135 1.446-3.874 4.01-5.877 3.484-1.69-.444-6.879-4.405-7.213-4.8-.333-.395-1.069-1.053 2.235-2.532 3.307-1.478 3.674-.853 4.377-.689z" fill="#e0f1f8"/><path d="m49.584 19.29c.81.189 6.232 3.646 7.483 5.24 1.312 1.671-4.475 4.633-6.789 4.025-1.953-.512-7.947-5.089-8.332-5.545-.386-.455-1.236-1.215 2.583-2.924s4.244-.987 5.055-.796z" fill="#abc0cb"/><path d="m49.46 19.586c.701.164 4.541 2.698 5.624 4.08 1.135 1.446-3.874 4.01-5.877 3.484-1.69-.444-6.025-3.948-6.359-4.343-.333-.395-1.069-1.053 2.235-2.532 3.307-1.478 3.674-.853 4.377-.689z" fill="#e0f1f8"/><path d="m55.951 27.499c-.71.571-1.932 1.204-3.344 2.025-5.337 3.1-22.549 10.418-23.582 10.504s-4.993-3.012-6.714-4.303c-5.001-3.754-13.141-9.933-16.301-12.713-.105.051-.196.098-.273.142-.075.044-.139.085-.182.121-.47.388-.504 3.063-.116 3.966.382.891 19.587 16.386 21.498 17.887.904.71 1.162 1.484 4.972-.452 4.268-2.173 22.544-11.053 23.689-11.945.581-.454.646-.712.813-2.52.167-1.797-.225-2.472-.46-2.712z" fill="#abc0cb"/><path d="m57.521 33.055-29.873 14.683.094 6.828 28.895-16.168z" fill="#9d402e"/><path d="m61.126 21.117-2.132 1.219-2.802 19.362c.253.29.999.979 1.838.139l3.185-20.663z" fill="#823827"/><path d="m61.215 21.173-21.7-13.562-1.899.414 21.378 14.31z" fill="#9d402e"/><path d="m49.879 35.85c.204-1.85.121-2.88.121-3.517 0-1.333-.833-2-.833-2l-20.3-14.8c-.016-.016-.747.265-.765.248-7.611 2.358-21.38 6.531-22.546 7.495-.47.388-.504 3.163-.116 4.066.382.891 19.587 16.386 21.498 17.887.904.71 1.162 1.484 4.972-.452 2.873-1.464 11.899-5.869 17.969-8.927z" fill="#b11c21"/><path d="m32 39.667c1.667-.667 14-6.5 14-6.5l-23.134-15.767c-6.501 2.017-14.438 4.495-16.709 5.542.553.489 1.476 1.258 1.676 1.458 0 0 18.667 14.766 20 15.6s2.5.334 4.167-.333z" fill="#e30012"/><path d="m50 32.333c0-1.333-.833-2-.833-2l-20.3-14.8c-.016-.016-.747.265-.765.248-2.059.638-5.04 1.501-7.586 2.295l21.317 16.091s.667.5.834 1.333c.146.731.133 2.458.151 3.84 2.455-1.2 4.938-2.421 7.061-3.49.204-1.85.121-2.88.121-3.517z" fill="#84969f"/><path d="m50 32.333c0-1.333-.833-2-.833-2l-20.3-14.8c-.016-.016-1.047.265-1.065.248-2.059.638-3.939 1.201-6.485 1.995l21.313 16.092s.704.549.834 1.333c.122.736.133 1.761.151 3.143 2.455-1.2 4.142-2.022 6.264-3.092.204-1.85.121-2.282.121-2.919z" fill="#abc0cb"/><path d="m22.274 17.975 21.101 15.775s5-1.75 5.25-2.375-7.25-5.75-10.5-8.25-9.675-6.975-9.675-6.975z" fill="#e0f1f8"/><path d="m46.417 32.917-4.917-4.417 5.833 3.833z" fill="#abc0cb"/><path d="m24.417 17.25 5.333 3.5-4.417-3.833z" fill="#abc0cb"/></svg>