<svg height="64" viewBox="0 0 64 64" width="64" xmlns="http://www.w3.org/2000/svg"><g fill="none" fill-rule="evenodd"><path d="m17 9.99715203c0-1.65528136 1.2839079-3.36398286 2.8875819-3.82217544l2.1811073-.62317351c1.0666335-.30475242 1.9313108.34525705 1.9313108 1.45405558v11.99414134h-7z" fill="#9c4d4d"/><path d="m42 9.99715203c0-1.65528136 1.2839079-3.36398286 2.8875819-3.82217544l2.1811073-.62317351c1.0666335-.30475242 1.9313108.34525705 1.9313108 1.45405558v11.99414134h-7z" fill="#9c4d4d" transform="matrix(-1 0 0 1 91 0)"/><circle cx="33" cy="36" fill="#bd7575" r="26"/><circle cx="24" cy="17" fill="#d8d8d8" r="6"/><circle cx="24" cy="17" fill="#0a3586" r="2"/><circle cx="42" cy="17" fill="#d8d8d8" r="6"/><path d="m21 48h7l-2 10h-5z" fill="#fff"/><path d="m39 48h7l-2 10h-5z" fill="#fff" transform="matrix(-1 0 0 1 85 0)"/><circle cx="42" cy="17" fill="#0a3586" r="2"/><path d="m20 28s6.5-3 13-3 13 3 13 3-2.375 3.375-.75 6.75 4.8488077 2.2682441 9.25 8.75 2.2502835 3.8730177 2.2502835 3.8730177c1.2424841 4.212266-1.272486 6.9649057-5.6204724 6.2499065 0 0-6.6298111-1.6229242-18.1298111-1.6229242s-18.1298111 1.6229242-18.1298111 1.6229242c-4.3465853.760538-6.86035045-2.056979-5.35900642-6.2137308 0 0-.48499021-.2659493 1.98881752-3.9091934 2.4738077-3.6432441 7.625-5.375 9.25-8.75s-.75-6.75-.75-6.75z" fill="#9c4d4d"/><g fill="#0a3586"><ellipse cx="25.5" cy="45" rx="1.5" ry="3"/><ellipse cx="41.5" cy="45" rx="1.5" ry="3"/></g></g></svg>