<svg height="46" viewBox="0 0 48.095 46" width="48.095" xmlns="http://www.w3.org/2000/svg"><path d="m9 0a1.0001 1.0001 0 0 0 -1 1v3.484375l-6.5820312 4.7011719a1.0001 1.0001 0 0 0 -.4179688.8144531v4a1.0001 1.0001 0 0 0 1 1h22a1.0001 1.0001 0 0 0 1-1v-4a1.0001 1.0001 0 0 0 -.417969-.8144531l-6.582031-4.6992188v-3.4863281a1.0001 1.0001 0 0 0 -1-1zm1 2h6v3a1.0001 1.0001 0 0 0 .417969.8144531l6.582031 4.6992189v2.486328h-20v-2.486328l6.5820312-4.6992189a1.0001 1.0001 0 0 0 .4179688-.8144531zm-4.5 19c-.6542402 0-1.2021974.418077-1.4082031 1h-3.0917969a1.0001 1.0001 0 0 0 -1 1v22a1.0001 1.0001 0 0 0 1 1h46.095703a1.0001 1.0001 0 0 0 1-1v-22a1.0001 1.0001 0 0 0 -1-1h-25.1875c-.206006-.581923-.753963-1-1.408203-1zm-3.5 3h3.5 15 3.595703v20h-22.095703zm24.095703 0h20v6h-20zm-21.095703 2a1.0001 1.0001 0 0 0 -1 1v14a1.0001 1.0001 0 0 0 1 1h16a1.0001 1.0001 0 0 0 1-1v-14a1.0001 1.0001 0 0 0 -1-1zm25 0a1.0001 1.0001 0 1 0 0 2h12a1.0001 1.0001 0 1 0 0-2zm-24 2h14v12h-14zm20.095703 4h20v12h-20zm3.888672 2.986328a1.0001 1.0001 0 0 0 -.984375 1.013672v5a1.0001 1.0001 0 1 0 2 0v-5a1.0001 1.0001 0 0 0 -1.015625-1.013672z"/></svg>