<svg enable-background="new 0 0 128 128" viewBox="0 0 128 128" xmlns="http://www.w3.org/2000/svg" xmlns:xlink="http://www.w3.org/1999/xlink"><linearGradient id="a" gradientTransform="matrix(.7071 .7071 -.7071 .7071 63.344 -10.421)" gradientUnits="userSpaceOnUse" x1="17.036" x2="98.519" y1="53.476" y2="53.476"><stop offset=".0085237" stop-color="#afb42b"/><stop offset=".448" stop-color="#8f8136"/><stop offset=".8725" stop-color="#6d4c41"/></linearGradient><radialGradient id="b" cx="52.227" cy="53.703" gradientTransform="matrix(.6958 -.7183 .4662 .4516 -9.1448 66.966)" gradientUnits="userSpaceOnUse" r="55.246"><stop offset=".1713" stop-color="#394a0c"/><stop offset=".2402" stop-color="#43590e"/><stop offset=".4916" stop-color="#648c15"/><stop offset=".7111" stop-color="#7cb11b"/><stop offset=".8879" stop-color="#8bc81e"/><stop offset="1" stop-color="#90d01f"/></radialGradient><radialGradient id="c" cx="51.426" cy="54.909" gradientTransform="matrix(1.0445 0 0 1.0307 -.89 -2.8536)" gradientUnits="userSpaceOnUse" r="39.071"><stop offset="0" stop-color="#fff"/><stop offset=".2884" stop-color="#f2f8db" stop-opacity=".7153"/><stop offset=".5526" stop-color="#e8f3c1" stop-opacity=".4546"/><stop offset=".7092" stop-color="#e4f1b7" stop-opacity=".3"/><stop offset=".8566" stop-color="#e2f0b6" stop-opacity="0"/></radialGradient><path d="m91.74 11.6-82.27 82.2c16.35 23.78 72.21 44.18 98.65 16.57 34.2-35.72 5.26-84.52-16.38-98.77z" fill="url(#a)"/><path d="m31.75 101.96c-8.55 0-15.67-2.6-20.6-7.53-7.01-7.01-9.13-18.26-5.97-31.68 3.09-13.14 11.09-26.9 21.95-37.76 12.42-12.42 28.04-19.54 42.87-19.54 9.08 0 17.02 2.78 22.35 7.81 5.48 5.18 8.37 12.71 8.35 21.76-.03 15.48-8.33 32.5-22.21 45.53-14.28 13.4-31.75 21.41-46.74 21.41z" fill="url(#b)"/><path d="m70 5v1.2c9 0 16.64 2.7 21.83 7.61 5.33 5.04 8.13 12.37 8.12 21.21-.03 15.28-8.24 32.09-21.97 44.98-14.14 13.27-31.42 21.2-46.22 21.2-8.35 0-15.28-2.53-20.07-7.31-3.44-3.44-5.67-7.94-6.63-13.37-.94-5.28-.65-11.2.86-17.6 3.06-13.01 10.99-26.64 21.75-37.4 12.27-12.28 27.7-19.32 42.33-19.32v-1.5m0 0c-13.7 0-29.82 6.18-43.39 19.76-22.72 22.71-31.04 55.44-15.98 70.5 5.2 5.2 12.62 7.75 21.13 7.75 14.48 0 32.1-7.38 47.25-21.61 23.42-21.98 29.33-53.75 13.86-68.38-5.53-5.22-13.66-8.02-22.87-8.02z" fill="#8d6e63"/><path d="m69.73 7.87c7.84 0 14.83 2.22 19.68 6.26l2.11 1.75.22-.22c12.34 9.21 25.95 29.13 28.32 50.11 1.83 16.23-3.05 30.54-14.51 42.54-7.7 8.06-18.89 12.32-32.38 12.32-24.52 0-49.35-13.4-59.79-26.5l.19-.19-1.83-2.11c-12.1-13.98-4.37-43.8 16.89-65.11 11.95-11.98 26.93-18.85 41.1-18.85m0-3c-13.65 0-29.7 6.17-43.23 19.73-22.03 22.09-30.46 53.68-17.01 69.19l-.05.05c10.72 15.63 38.49 29.8 63.74 29.8 13.11 0 25.54-3.82 34.54-13.25 34.08-35.67 5.25-84.4-16.32-98.62l-.07.07c-5.45-4.55-13.05-6.97-21.6-6.97z" fill="#424242" opacity=".2"/><path d="m92.86 39.22-.18-2.85-22.75 9.09 22.17-12.68-.7-2.6-22.17 12.68 20.91-15.89-1.2-2.26-20.91 15.89 19.02-18.62-1.66-1.86-19.02 18.62 16.55-20.79-2.07-1.4-16.55 20.78 13.57-22.31-2.42-.91-13.57 22.31 10.19-23.17-2.7-.38-10.19 23.17 6.5-23.32-2.89.16-6.5 23.32 2.61-22.77-3 .69-2.6 22.77-1.37-21.52-3.01 1.2 1.37 21.52-5.3-19.61-2.93 1.68 5.3 19.6-9.07-17.11-2.77 2.11 9.07 17.1-12.56-14.08-2.51 2.46 12.56 14.09-15.68-10.64-2.18 2.74 15.67 10.64-18.31-6.87-1.8 2.96 18.31 6.87-20.39-2.9-1.34 3.07 20.38 2.89-21.84 1.18-.86 3.08 21.85-1.18-22.65 5.21-.34 3.01 22.64-5.21-22.75 9.08.18 2.85 22.75-9.08-22.17 12.68.7 2.59 22.17-12.68-20.91 15.89 1.2 2.26 20.91-15.89-19.02 18.62 1.66 1.87 19.02-18.63-16.55 20.79 2.07 1.41 16.55-20.79-13.57 22.32 2.42.91 13.57-22.32-10.19 23.17 2.7.38 10.19-23.17-6.5 23.32 2.89-.15 6.5-23.32-2.6 22.76 2.99-.69 2.6-22.76 1.37 21.51 3.01-1.2-1.37-21.51 5.3 19.6 2.93-1.67-5.3-19.61 9.07 17.11 2.77-2.1-9.07-17.11 12.56 14.09 2.51-2.46-12.56-14.09 15.68 10.64 2.18-2.75-15.67-10.64 18.31 6.87 1.8-2.95-18.31-6.87 20.39 2.89 1.34-3.07-20.38-2.89 21.84-1.17.86-3.09-21.84 1.18 22.64-5.21.34-3.01-22.64 5.21z" fill="url(#c)"/><ellipse cx="56.38" cy="78.43" rx="1.51" ry="3.36" transform="matrix(.8792 -.4765 .4765 .8792 -30.561 36.338)"/><ellipse cx="63" cy="68.96" rx="1.45" ry="3.24" transform="matrix(.8792 -.4765 .4765 .8792 -25.246 38.348)"/><ellipse cx="66.99" cy="62.96" rx="1.37" ry="3.07" transform="matrix(.6288 -.7775 .7775 .6288 -24.088 75.457)"/><ellipse cx="70.58" cy="57.69" rx="1.49" ry="3.34" transform="matrix(.501 -.8654 .8654 .501 -14.707 89.873)"/><ellipse cx="75.09" cy="51.9" rx="2.6" ry="1.17" transform="matrix(.998 -.0632 .0632 .998 -3.1289 4.8475)"/><ellipse cx="80.63" cy="47.47" rx="2.6" ry="1.17" transform="matrix(.998 -.0632 .0632 .998 -2.8377 5.1888)"/><ellipse cx="82.48" cy="40.45" rx="2.6" ry="1.17" transform="matrix(.9951 -.0989 .0989 .9951 -3.5971 8.359)"/><ellipse cx="81.64" cy="32.08" rx="3.09" ry="1.38" transform="matrix(.8741 -.4858 .4858 .8741 -5.3063 43.698)"/><ellipse cx="31.51" cy="78.32" rx="3.26" ry="1.46" transform="matrix(.5405 -.8414 .8414 .5405 -51.417 62.497)"/><ellipse cx="36.97" cy="81.71" rx="3.25" ry="1.46" transform="matrix(.0829 -.9966 .9966 .0829 -47.522 111.77)"/><ellipse cx="45.73" cy="81.82" rx="1.53" ry="3.42" transform="matrix(.992 -.1265 .1265 .992 -9.9816 6.4409)"/><ellipse cx="35.23" cy="47.67" rx="1.42" ry="3.18" transform="matrix(.5499 -.8353 .8353 .5499 -23.963 50.882)"/><ellipse cx="43.12" cy="40.04" rx="1.41" ry="3.14" transform="matrix(.8792 -.4765 .4765 .8792 -13.868 25.383)"/><ellipse cx="49.81" cy="34.67" rx="1.17" ry="2.6" transform="matrix(.9836 -.1805 .1805 .9836 -5.4403 9.5597)"/><ellipse cx="56.17" cy="26.67" rx="1.47" ry="3.29" transform="matrix(.9954 -.0954 .0954 .9954 -2.2892 5.4827)"/><ellipse cx="62.54" cy="22.83" rx="3.14" ry="1.41" transform="matrix(.1455 -.9894 .9894 .1455 30.858 81.386)"/><ellipse cx="70.3" cy="23.94" rx="3.14" ry="1.41" transform="matrix(.4804 -.877 .877 .4804 15.532 74.095)"/><ellipse cx="79.44" cy="24.28" rx="2.6" ry="1.17" transform="matrix(.6694 -.7429 .7429 .6694 8.2259 67.049)"/><ellipse cx="23.84" cy="75.16" rx="2.6" ry="1.17" transform="matrix(.882 -.4713 .4713 .882 -32.609 20.107)"/><ellipse cx="21.1" cy="60.67" rx="3.31" ry="1.48" transform="matrix(.98 -.1991 .1991 .98 -11.656 5.4156)"/><ellipse cx="29.26" cy="51.99" rx="1.39" ry="3.11" transform="matrix(.2308 -.973 .973 .2308 -28.081 68.462)"/><path d="m66.48 33.18c1.53.47 2.89 1.74 3.09 3.33.3 2.4-1.98 4.53-1.78 6.94.12 1.52 1.22 2.81 1.38 4.32.22 1.99-1.22 3.8-2.85 4.97s-3.53 1.97-4.99 3.34c-2.34 2.22-3.16 5.55-4.25 8.59s-2.92 6.24-6.04 7.08c-3.52.95-6.99-1.5-10.6-2-2.19-.3-4.41.12-6.62.07s-4.62-.74-5.8-2.61c-1.13-1.79-.79-4.2.29-6.02s2.77-3.18 4.43-4.49c5.88-4.67 13.47-9.02 18.22-14.84 3.56-4.35 9.02-10.66 15.52-8.68z" fill="#dce775"/></svg>