<svg viewBox="0 0 64 64" xmlns="http://www.w3.org/2000/svg"><circle cx="36.5" cy="25.5" fill="#e5efef" r="21.5"/><circle cx="13" cy="7" fill="none" r="2" stroke="#4c241d" stroke-linecap="round" stroke-linejoin="round" stroke-width="2"/><circle cx="56.044" cy="22.014" fill="#4c241d" r="1.069"/><g stroke="#4c241d" stroke-linecap="round" stroke-linejoin="round" stroke-width="2"><path d="m53 5 3 3" fill="none"/><path d="m56 5-3 3" fill="none"/><path d="m9 17h12v2l-6 9-10-1-2-5 4-2z" fill="#ffce56"/><path d="m16 34v21h-.862a2.138 2.138 0 0 0 -2.138 2.138v1.862h7l2.5-15.5" fill="#ffce56"/><path d="m40.007 42s0 6 7 8l-3 5h-.862a2.138 2.138 0 0 0 -2.138 2.138v1.862h6l4-10s7-20-7-21" fill="#ffce56"/><path d="m20 41v14h-.862a2.138 2.138 0 0 0 -2.138 2.138v1.862h7l2.5-15.5a14.594 14.594 0 0 0 7.5 1.5c5.27-.6 11.532-3.578 15-3a7.966 7.966 0 0 0 6.5 7.5l-1 5.5h-.862a2.138 2.138 0 0 0 -2.138 2.138v1.862h6l2-10.5-1-4s8-16-6-17-17-1-17-1" fill="#ffce56"/><path d="m38 15 1.138.853a10.729 10.729 0 0 0 6.44 2.147h12.422a5 5 0 0 1 5 5v1a5 5 0 0 1 -5 5h-.283" fill="none"/><ellipse cx="35.5" cy="12" fill="#bf7e68" rx="2.5" ry="3.703" transform="matrix(.78381269 -.62099731 .62099731 .78381269 .223 24.639)"/></g><circle cx="11.044" cy="20.014" fill="#4c241d" r="1.069"/><path d="m49 42v-4" fill="#ffce56" stroke="#4c241d" stroke-linecap="round" stroke-linejoin="round" stroke-width="2"/><path d="m5 59h30" fill="none" stroke="#4c241d" stroke-linecap="round" stroke-linejoin="round" stroke-width="2"/><path d="m39 59h23" fill="none" stroke="#4c241d" stroke-linecap="round" stroke-linejoin="round" stroke-width="2"/><path d="m41 26-6.74-2.384-4.56-7.292a8.578 8.578 0 0 0 -8.089-4c-1.563.147-3.444.361-5.613.671-7 1-7 4-7 4h8.5a1.5 1.5 0 0 1 0 3h-1.498v2l-5 5h-6l1 3h4l10 11.005 11-10 8.4-1.778c.6-.222 2.488-1.891 1.6-3.222z" fill="#bf7e68" stroke="#4c241d" stroke-linecap="round" stroke-linejoin="round" stroke-width="2"/><path d="m27 24v3l4 4" fill="#bf7e68" stroke="#4c241d" stroke-linecap="round" stroke-linejoin="round" stroke-width="2"/><path d="m20 25v5l5.678 5.838" fill="#bf7e68" stroke="#4c241d" stroke-linecap="round" stroke-linejoin="round" stroke-width="2"/></svg>