<svg viewBox="0 0 50 50" xmlns="http://www.w3.org/2000/svg"><path d="m12 2c-1.093063 0-2 .9069372-2 2h-3c-1.6449698 0-3 1.3550302-3 3v35c0 1.644459 1.3544268 3 3 3h2v1c0 1.093063.9069372 2 2 2h3c1.093063 0 2-.906937 2-2v-1h18v1c0 1.093063.906937 2 2 2h3c1.093063 0 2-.906937 2-2v-1h2c1.645063 0 3-1.354937 3-3v-35c0-1.6455732-1.355541-3-3-3h-3c0-1.0930628-.906937-2-2-2h-6c-1.093063 0-2 .9069372-2 2h-9c0-1.0930628-.906937-2-2-2zm-5 4h3.832031a1.0001 1.0001 0 0 0 .326172 0h8.673828a1.0001 1.0001 0 0 0 .326172 0h10.673828a1.0001 1.0001 0 0 0 .326172 0h7.673828a1.0001 1.0001 0 0 0 .326172 0h3.841797c.563541 0 1 .4355732 1 1v35c0 .562937-.437063 1-1 1h-2.832031a1.0001 1.0001 0 0 0 -.326172 0h-4.673828a1.0001 1.0001 0 0 0 -.326172 0h-19.673828a1.0001 1.0001 0 0 0 -.326172 0h-4.673828a1.0001 1.0001 0 0 0 -.3261721 0h-2.8417969c-.5644268 0-1-.436459-1-1v-35c0-.5650302.4349698-1 1-1zm3 2c-1.105 0-2 .895-2 2s.895 2 2 2 2-.895 2-2-.895-2-2-2zm6 0c-1.105 0-2 .895-2 2s.895 2 2 2 2-.895 2-2-.895-2-2-2zm6 0c-1.105 0-2 .895-2 2s.895 2 2 2 2-.895 2-2-.895-2-2-2zm6 0c-1.105 0-2 .895-2 2s.895 2 2 2 2-.895 2-2-.895-2-2-2zm12 0c-1.105 0-2 .895-2 2s.895 2 2 2 2-.895 2-2-.895-2-2-2zm-31 6v1 18.832031a1.0001 1.0001 0 0 0 0 .326172v5.841797h32v-5.832031a1.0001 1.0001 0 0 0 0-.326172v-19.841797zm2 2h28v17h-3.208984c.130078-.339611.208984-.703042.208984-1.085938 0-4.911379-4.002683-8.914062-8.914062-8.914062h-4.173829c-4.910503 0-8.912109 4.002683-8.912109 8.914062 0 .382896.079025.746327.208984 1.085938h-3.208984zm12 9h4v3a1.0001 1.0001 0 1 0 2 0v-2.615234c2.872379.839509 5 3.378316 5 6.529296 0 .611492-.474931 1.085938-1.087891 1.085938h-15.826171c-.611491 0-1.085938-.474446-1.085938-1.085938 0-3.151174 2.127944-5.689957 5-6.529296v2.615234a1.0001 1.0001 0 1 0 2 0zm-12 10h6.085938 15.826171 6.087891v3h-28zm0 10h3v1h-3zm25 0h3v1h-3z"/></svg>