<svg height="256" viewBox="0 0 255.99999 256" width="256" xmlns="http://www.w3.org/2000/svg" xmlns:xlink="http://www.w3.org/1999/xlink"><linearGradient id="a" gradientUnits="userSpaceOnUse" x1="172.18833955717" x2="101.740851384" y1="39.46785222721" y2="249.98958000039"><stop offset="0" stop-color="#9ac64c"/><stop offset=".438" stop-color="#9ac64c"/><stop offset="1" stop-color="#d9d74e"/></linearGradient><g stroke-width="1.228721" transform="matrix(1.045871 0 0 1.045871 -5.871492 -11.742978)"><path d="m177.37603 40.1977c41.43002 16.353054 41.87482 56.593679 41.0995 89.64629 10.07551 47.51465 2.28542 110.21753-48.01843 122.9348-37.85691 9.57051-97.940158-1.52361-124.148786-42.19429-26.160707-40.59819-9.892436-95.17799 32.868298-119.087681 13.649866-16.75976 29.156328-35.436325 45.965238-46.422323 8.54428-4.708595 16.14844-7.210628 31.49213-7.125356 8.33132-.06037 14.06668 1.362672 20.74205 2.24856z" fill="url(#a)"/><path d="m165.7302 61.151086s-3.69476-5.954383-8.24226-3.482196c-4.70969 2.560655 2.61349 8.800103 7.016 9.721644s11.97266.525893 10.95405-3.424447c-.74952-2.908383-2.353-4.028977-9.72779-2.815001" fill="#68aa44"/><path d="m177.37603 40.1977c-5.86223 11.941944-10.15047 27.079791-10.15047 27.079791v.01229c-2.07654-.158505-4.10393-.846589-5.65212-2.013875 0 0 .93383-9.006528 3.10989-19.733265 0 0 0 0 0-.01229.0233-.110585.18308-.750748.3551-1.72021 0-.01229 0-.02457 0-.02457 1.8308-8.63914 4.43569-18.086779 7.96212-24.723103 0 0 .29489-14.5959819 17.27705-3.942967 11.25509 7.065148-.77532 8.711634-5.72584 13.858748-2.52011 2.618406-4.96526 6.696532-7.17573 11.219455" fill="#795e36"/><path d="m194.87425 191.91162c0 1.58382-1.10094 2.86783-2.45745 2.86783-1.35773 0-2.45744-1.28401-2.45744-2.86783 0-1.58137 1.09971-2.86538 2.45744-2.86538 1.35651 0 2.45745 1.28401 2.45745 2.86538" fill="#d0e08b"/><path d="m156.41281 178.49398c0 1.58382-1.09971 2.86784-2.45744 2.86784-1.35651 0-2.45745-1.28402-2.45745-2.86784s1.10094-2.86784 2.45745-2.86784c1.35773 0 2.45744 1.28402 2.45744 2.86784" fill="#d0e08b"/><path d="m173.61491 203.27238c0 1.58382-1.09971 2.86783-2.45744 2.86783-1.35651 0-2.45745-1.28401-2.45745-2.86783 0-1.58137 1.10094-2.86538 2.45745-2.86538 1.35773 0 2.45744 1.28401 2.45744 2.86538" fill="#d0e08b"/><path d="m207.40475 164.87483c0 1.58382-1.09971 2.86784-2.45744 2.86784-1.35651 0-2.45745-1.28402-2.45745-2.86784s1.10094-2.86783 2.45745-2.86783c1.35773 0 2.45744 1.28401 2.45744 2.86783" fill="#d0e08b"/><path d="m176.68671 91.355516c0 1.583822-1.0997 2.867836-2.45744 2.867836-1.35651 0-2.45744-1.284014-2.45744-2.867836 0-1.581365 1.10093-2.865378 2.45744-2.865378 1.35774 0 2.45744 1.284013 2.45744 2.865378" fill="#7cbc45"/><path d="m198.39453 119.20817c0 1.58382-1.0997 2.86784-2.45744 2.86784-1.35651 0-2.45744-1.28402-2.45744-2.86784 0-1.58136 1.10093-2.86538 2.45744-2.86538 1.35774 0 2.45744 1.28402 2.45744 2.86538" fill="#7cbc45"/><path d="m205.35647 136.41027c0 1.58382-1.09971 2.86784-2.45744 2.86784-1.35651 0-2.45745-1.28402-2.45745-2.86784s1.10094-2.86783 2.45745-2.86783c1.35773 0 2.45744 1.28401 2.45744 2.86783" fill="#7cbc45"/><path d="m161.94206 155.25149c0 1.58382-1.09971 2.86783-2.45745 2.86783-1.3565 0-2.45744-1.28401-2.45744-2.86783 0-1.58383 1.10094-2.86784 2.45744-2.86784 1.35774 0 2.45745 1.28401 2.45745 2.86784" fill="#7cbc45"/><path d="m179.14416 135.59194c0 1.58383-1.09971 2.86784-2.45745 2.86784-1.35651 0-2.45744-1.28401-2.45744-2.86784 0-1.58382 1.10093-2.86783 2.45744-2.86783 1.35774 0 2.45745 1.28401 2.45745 2.86783" fill="#7cbc45"/><path d="m165.21906 116.34279c0 1.58383-1.09971 2.86784-2.45745 2.86784-1.3565 0-2.45744-1.28401-2.45744-2.86784 0-1.58382 1.10094-2.86783 2.45744-2.86783 1.35774 0 2.45745 1.28401 2.45745 2.86783" fill="#7cbc45"/><path d="m197.59955 77.038454c0 1.583822-1.10093 2.867836-2.45744 2.867836-1.35774 0-2.45744-1.284014-2.45744-2.867836 0-1.581364 1.0997-2.865378 2.45744-2.865378 1.35651 0 2.45744 1.284014 2.45744 2.865378" fill="#7cbc45"/><g fill="#d0e08b"><path d="m139.82507 193.34185c0 1.58382-1.0997 2.86784-2.45744 2.86784-1.35651 0-2.45744-1.28402-2.45744-2.86784s1.10093-2.86784 2.45744-2.86784c1.35774 0 2.45744 1.28402 2.45744 2.86784"/><path d="m111.56448 196.20723c0 1.58382-1.09971 2.86783-2.45744 2.86783-1.35651 0-2.45745-1.28401-2.45745-2.86783 0-1.58137 1.10094-2.86538 2.45745-2.86538 1.35773 0 2.45744 1.28401 2.45744 2.86538"/><path d="m162.96558 223.85346c0 1.58382-1.0997 2.86784-2.45744 2.86784-1.35651 0-2.45744-1.28402-2.45744-2.86784 0-1.58137 1.10093-2.86538 2.45744-2.86538 1.35774 0 2.45744 1.28401 2.45744 2.86538"/><path d="m193.58286 223.577c0 1.58505-1.0997 2.86783-2.45744 2.86783-1.35651 0-2.45744-1.28278-2.45744-2.86783 0-1.58382 1.10093-2.86784 2.45744-2.86784 1.35774 0 2.45744 1.28402 2.45744 2.86784"/><path d="m140.98744 231.27862c0 1.58382-1.0997 2.86784-2.45744 2.86784-1.35651 0-2.45744-1.28402-2.45744-2.86784 0-1.58136 1.10093-2.86538 2.45744-2.86538 1.35774 0 2.45744 1.28402 2.45744 2.86538"/><path d="m183.1375 177.46923c0 1.58382-1.09971 2.86783-2.45744 2.86783-1.35651 0-2.45745-1.28401-2.45745-2.86783 0-1.58137 1.10094-2.86538 2.45745-2.86538 1.35773 0 2.45744 1.28401 2.45744 2.86538"/><path d="m103.37382 220.78166c0 1.58382-1.0997 2.86783-2.45744 2.86783-1.356509 0-2.457443-1.28401-2.457443-2.86783 0-1.58383 1.100934-2.86784 2.457443-2.86784 1.35774 0 2.45744 1.28401 2.45744 2.86784"/><path d="m75.11323 194.56811c0 1.58383-1.099706 2.86784-2.457443 2.86784-1.356508 0-2.457443-1.28401-2.457443-2.86784 0-1.58136 1.100935-2.86537 2.457443-2.86537 1.357737 0 2.457443 1.28401 2.457443 2.86537"/></g><path d="m84.50189 106.97625c13.239473-9.167489 14.614412-11.186279 23.42189-19.765211 6.87469-6.695303 12.70743-3.990887 9.54593 16.436601-2.97965 19.24178-4.9284 43.4009-29.04697 34.9903-22.704314-7.91788-13.277563-25.18264-3.92085-31.66169" fill="#b3d37c"/></g></svg>