<svg enable-background="new 0 0 128 128" viewBox="0 0 128 128" xmlns="http://www.w3.org/2000/svg" xmlns:xlink="http://www.w3.org/1999/xlink"><radialGradient id="a" cx="30.2939" cy="61.8669" gradientTransform="matrix(1 0 0 -1 0 128)" gradientUnits="userSpaceOnUse" r="17.7339"><stop offset=".7945" stop-color="#6d4c41" stop-opacity="0"/><stop offset="1" stop-color="#6d4c41"/></radialGradient><linearGradient id="b" gradientTransform="matrix(1 0 0 -1 0 128)" gradientUnits="userSpaceOnUse" x1="71.5833" x2="88.3632" y1="49.2605" y2="49.2605"><stop offset="0" stop-color="#ffb300"/><stop offset=".5" stop-color="#ffca28"/></linearGradient><linearGradient id="c" gradientTransform="matrix(1 0 0 -1 0 128)" gradientUnits="userSpaceOnUse" x1="64" x2="64" y1="37.9759" y2=".7994"><stop offset="0" stop-color="#eceff1"/><stop offset=".1865" stop-color="#e8ecee"/><stop offset=".3616" stop-color="#dde3e6"/><stop offset=".5315" stop-color="#cad3d8"/><stop offset=".6961" stop-color="#b0bec5"/></linearGradient><linearGradient id="d"><stop offset=".1271" stop-color="#eceff1" stop-opacity="0"/><stop offset=".4797" stop-color="#e8ecee" stop-opacity=".4039"/><stop offset=".81" stop-color="#dde3e6" stop-opacity=".7824"/><stop offset="1" stop-color="#d3dbdf"/></linearGradient><radialGradient id="e" cx="56.6318" cy="38.5799" gradientTransform="matrix(1 .00015888 .00012588 -.7923 -.004812 119.9821)" gradientUnits="userSpaceOnUse" r="49.262" xlink:href="#d"/><radialGradient id="f" cx="2078.2852" cy="38.5799" gradientTransform="matrix(-1 .00015888 -.00012588 -.7923 2149.6582 119.6609)" gradientUnits="userSpaceOnUse" r="49.262" xlink:href="#d"/><linearGradient id="g" gradientTransform="matrix(1 0 0 -1 0 128)" gradientUnits="userSpaceOnUse" x1="63.9538" x2="63.9538" y1="52.7022" y2="36.1203"><stop offset="0" stop-color="#eceff1"/><stop offset=".268" stop-color="#e8ecee"/><stop offset=".5195" stop-color="#dde3e6"/><stop offset=".7635" stop-color="#cad3d8"/><stop offset="1" stop-color="#b0bec5"/></linearGradient><linearGradient id="h"><stop offset=".1271" stop-color="#eceff1"/><stop offset=".4797" stop-color="#e8ecee"/><stop offset=".81" stop-color="#dde3e6"/><stop offset="1" stop-color="#d3dbdf"/></linearGradient><radialGradient id="i" cx="45.6166" cy="78.12" gradientTransform="matrix(1 0 0 -1 0 128)" gradientUnits="userSpaceOnUse" r="6.4402" xlink:href="#h"/><radialGradient id="j" cx="29.0776" cy="71.8144" gradientTransform="matrix(1 0 0 -1 0 128)" gradientUnits="userSpaceOnUse" r="6.6762" xlink:href="#h"/><radialGradient id="k" cx="13.1345" cy="78.9775" gradientTransform="matrix(1 0 0 -1 0 128)" gradientUnits="userSpaceOnUse" r="6.6762" xlink:href="#h"/><radialGradient id="l" cx="22.2407" cy="89.2792" gradientTransform="matrix(1 0 0 -1 0 128)" gradientUnits="userSpaceOnUse" r="6.6762" xlink:href="#h"/><radialGradient id="m" cx="38.0892" cy="90.5501" gradientTransform="matrix(1 0 0 -1 0 128)" gradientUnits="userSpaceOnUse" r="7.6401" xlink:href="#h"/><radialGradient id="n" cx="2012.9838" cy="420.1036" gradientTransform="matrix(-.9409 -.3387 -.3387 .9409 2072.9358 328.674)" gradientUnits="userSpaceOnUse" r="5.0758" xlink:href="#h"/><radialGradient id="o" cx="88.9552" cy="-269.9524" gradientTransform="matrix(.9409 -.3387 .3387 .9409 32.3288 328.674)" gradientUnits="userSpaceOnUse" r="4.3639"><stop offset=".1271" stop-color="#eceff1"/><stop offset=".4797" stop-color="#e8ecee" stop-opacity=".5961"/><stop offset=".81" stop-color="#dde3e6" stop-opacity=".2176"/><stop offset="1" stop-color="#d3dbdf" stop-opacity="0"/></radialGradient><path d="m15.52 61.82c1.09-5.67 6.1-10.29 11.59-12.07 6.15-1.99 11.3.52 14.78 5.27 1.26 1.72 2.17 3.62 2.53 5.11.04.18.33 1.49.49 1.87.51 1.51 3.92 1.5 5.04 2.87.84 1.03-1.2 3.02-1.28 3.33-.41 1.53 3.67 5.75-2.73 9.62-2.23 1.35-3.56 1.59-3.33 3.59l.39 4.59h-12c-1.74-2.25-4.52-6.49-7.54-7.52-5.97-2.04-9.43-8.92-7.94-16.66z" fill="#ffca28"/><path d="m49.41 71.33c-.89.53-1.91.78-2.99.61-1.18-.19-.96-1.2.23-1.28.75-.06 1.54-.45 2.25-1.03z" fill="#795548"/><ellipse cx="42.63" cy="65.49" fill="#404040" rx="1.37" ry="2.1" transform="matrix(.8666 -.499 .499 .8666 -26.9957 30.0068)"/><path d="m41.89 62.3c1.32-.44 1.07-1.34.3-1.67-.57-.24-1.48-.14-2.58 1-1.04 1.08-1.06 2.12-1.08 2.76-.03.65.3 1.04.6.89.41-.22 1.13-2.44 2.76-2.98z" fill="#6d4c41"/><path d="m33.53 75.32c-.86.02-1.93-.09-3.2-.41-2.9-.73-4.46-2.71-3.09-5.22.92-1.68 4.01-1.71 6.47 0 .79.55 2.34 1.41 2.34 1.41l.41-1.87c-1.64-2.6-2.49-5.62-1.71-8.34 1.28-4.45 7.87-6.58 7.87-6.58s-1.11-3.28-5.4-4.56c-6.04-1.81-12.34-.85-17.83 3.77-5.23 4.4-6.7 12.37-4.74 18.91 3.17 10.59 22.03 10.06 22.03 10.06l-.23-.73c-.51-4.82-2.92-6.09-2.92-6.44z" fill="#543930"/><path d="m33.53 75.32c-.86.02-1.93-.09-3.2-.41-2.9-.73-4.46-2.71-3.09-5.22.92-1.68 4.01-1.71 6.47 0 .79.55 2.34 1.41 2.34 1.41l.41-1.87c-1.64-2.6-2.49-5.62-1.71-8.34 1.28-4.45 7.87-6.58 7.87-6.58s-1.11-3.28-5.4-4.56c-6.04-1.81-12.34-.85-17.83 3.77-5.23 4.4-6.7 12.37-4.74 18.91 3.17 10.59 22.03 10.06 22.03 10.06l-.23-.73c-.51-4.82-2.92-6.09-2.92-6.44z" fill="url(#a)"/><path d="m66.98 85.86c0-2.43 7.41-14.24 14.61-14.24s13.47 11.52 13.47 14.11z" fill="url(#b)"/><path d="m111.12 124c.03-4.02-5.03-3.56-5.03-7.94l-7.22-.09s3.46 2.54 3.46 4.02-1.23 1.81-1.23 4.02z" fill="#757575"/><path d="m16.88 124c-.03-4.02 5.02-3.56 5.02-7.94l7.23-.09s-3.45 2.54-3.45 4.02 1.23 1.81 1.23 4.01z" fill="#757575"/><path d="m96 119.84-64-.02c-23.82 0-24.12-35.69-24.12-35.69l112.24-.13s-1.1 35.84-24.12 35.84z" fill="url(#c)"/><path d="m64 84.03v35.77l-32-.01c-23.82 0-24.13-35.69-24.13-35.69z" fill="url(#e)"/><path d="m64 84.03v35.77l32-.01c23.82 0 24.13-35.69 24.13-35.69z" fill="url(#f)"/><path d="m102.86 55.97c-4.71 0-8.52 3.82-8.52 8.52v1.94l4.26-.06v-1.88c0-2.35 1.91-4.26 4.26-4.26 2.35 0 4.26 1.91 4.26 4.26v21.37l4.26-.02v-21.35c0-4.71-3.82-8.52-8.52-8.52z" fill="#757575"/><path d="m6.46 88c-1.39 0-2.39-1.76-1.88-3.38.71-2.25 2.32-4.8 5.97-4.8l106.56-.29c3.84 0 5.5 2.73 6.22 5.09.5 1.63-.49 3.38-1.88 3.38z" fill="url(#g)"/><circle cx="40.99" cy="50.4" fill="url(#i)" r="6.44"/><circle cx="29.2" cy="50.4" fill="url(#j)" r="6.44"/><circle cx="18.05" cy="50.4" fill="url(#k)" r="6.44"/><circle cx="24.71" cy="42.27" fill="url(#l)" r="6.44"/><circle cx="35.07" cy="42.27" fill="url(#m)" r="6.44"/><circle cx="35.07" cy="46.21" fill="url(#n)" r="4.9"/><circle cx="25.94" cy="48.08" fill="url(#o)" r="4.21"/></svg>