<svg height="64" viewBox="0 0 64 64" width="64" xmlns="http://www.w3.org/2000/svg" xmlns:xlink="http://www.w3.org/1999/xlink"><defs><path id="a" d="m21 58c19.44474 0 21-12.9837423 21-29s-9.4020203-29-21-29c-11.59797975 0-21 12.9837423-21 29s1.55526 29 21 29z"/><mask id="b" fill="#fff"><use fill="#fff" fill-rule="evenodd" xlink:href="#a"/></mask></defs><g fill="none" fill-rule="evenodd"><g transform="translate(11 3)"><use fill="#595959" xlink:href="#a"/><ellipse cx="21" cy="58" fill="#ececec" mask="url(#b)" rx="23" ry="37"/></g><circle cx="38" cy="18" fill="#fff" r="7"/><circle cx="26" cy="18" fill="#fff" r="7"/><circle cx="36" cy="18" fill="#595959" r="2"/><circle cx="28" cy="18" fill="#595959" r="2"/><path d="m32 21 6 8h-12z" fill="#ffaf40" transform="matrix(1 0 0 -1 0 50)"/><g fill="#595959"><path d="m13 27v9h-12z"/><path d="m63 27v9h-12z" transform="matrix(-1 0 0 1 114 0)"/></g></g></svg>