<svg fill="none" height="500" viewBox="0 0 500 500" width="500" xmlns="http://www.w3.org/2000/svg"><path clip-rule="evenodd" d="m312.3 34.238c-.062-12.734 9.83-23.789 31.971-24.228 22.141-.43902 36.919 13.43 34.273 24.17-3.451 14.01-27.507 17.945-27.116 32.725.06 2.248-14.586 2.046-14.586-.2-.337-14.722 28.878-21.836 29.32-32.8.386-9.608-7.462-14.817-21.771-14.817-9.942 0-18.3 5.121-19.03 15.036-.126 2.1-13.05 2.213-13.061.115z" fill="#e1b100" fill-rule="evenodd"/><path clip-rule="evenodd" d="m344.051 73.89c5.579 0 10.109 3 10.109 6.7s-4.53 6.695-10.109 6.695-10.109-3-10.109-6.695 4.53-6.7 10.109-6.7z" fill="#e1b100" fill-rule="evenodd"/><path d="m300.942 223.777c-16.754 71.788-114.119 70.484-110.343.858 9.337 1.755 18.513 4.281 27.432 7.554l-1.408-24.781s-26.779-1.552-37.01-15.834c-9.716-13.561-6.42-52.15-3.124-76.355 1.648-12.05 3.261-20.53 3.261-20.53s88.577 3.948 93.04 8.24 3.639 36.323 1.373 49.678c10.746-1.888 16.48 3.261 17.681 9.647 1.786 9.613-6.729 22.076-23.895 17.269-1.75 8.927 2.816 47.928 2.816 47.928s13.973-2.129 30.177-3.674z" fill="#ffa775"/><path d="m214.08 173.556c-.024 0-.048 0-.072 0-1.214-.092-11.92-1.017-14.143-5.269-2.346-4.484 4.217-34.7 5.762-38.936.043-.117.108-.225.193-.317.084-.092.185-.166.299-.219.113-.052.235-.082.36-.088.124-.005.249.014.366.057s.225.108.317.193c.092.084.166.185.219.299.052.113.082.235.088.36.005.124-.014.249-.057.366-2.225 6.1-7.581 34.121-5.863 37.4 1.308 2.5 8.424 3.938 12.6 4.255.125.005.247.034.361.086.113.052.216.126.301.217.084.091.151.199.194.316.044.117.064.241.059.366s-.034.247-.086.361c-.052.113-.126.216-.217.301-.091.084-.199.151-.316.194-.117.044-.241.064-.366.059z" fill="#29263b"/><path d="m236.182 193.589c-.202.001-.398-.07-.552-.2-4.342-3.649-7.958-5.281-10.758-4.845-.96.191-1.864.594-2.649 1.18-.784.585-1.428 1.338-1.884 2.203-.06.095-.139.178-.231.243s-.196.111-.306.136-.223.027-.334.008c-.112-.019-.218-.06-.313-.12s-.178-.139-.243-.231-.111-.196-.136-.306-.027-.223-.008-.334c.019-.112.06-.218.12-.313.587-1.073 1.405-2.002 2.394-2.722.989-.719 2.125-1.211 3.326-1.44 3.352-.516 7.32 1.188 12.125 5.227.135.113.231.265.277.435.045.17.038.35-.023.515-.06.166-.169.309-.313.41s-.316.155-.492.155z" fill="#29263b"/><path d="m257.363 119.586c-.315.001-.627-.071-.91-.21-.284-.138-.531-.34-.724-.59-3.405-4.418-6.566-6.777-9.4-7.011-1.862-.15-3.677.617-5.546 2.356-.4.372-.932.57-1.478.551-.546-.02-1.062-.256-1.434-.656s-.57-.932-.551-1.478c.02-.546.256-1.062.656-1.434 2.726-2.535 5.643-3.695 8.692-3.445 4.089.338 8.119 3.152 12.32 8.6.235.305.38.669.419 1.052.038.383-.031.769-.201 1.114s-.433.636-.759.84c-.327.203-.704.311-1.089.311z" fill="#29263b"/><path d="m182.75 119.4c-.337 0-.67-.083-.968-.242-.298-.158-.552-.388-.74-.668-.189-.28-.306-.602-.34-.938-.035-.335.013-.674.14-.987 1.321-3.254 3.328-5.371 5.966-6.292 3.355-1.172 7.443-.355 12.5 2.5.239.131.45.308.621.521.17.214.296.458.371.721.075.262.097.537.065.808s-.118.533-.252.77c-.134.238-.314.447-.53.614-.215.167-.462.29-.725.362-.264.071-.538.089-.809.053-.271-.035-.531-.125-.767-.262-3.9-2.2-6.968-2.937-9.112-2.193-1.491.52-2.638 1.813-3.5 3.951-.155.381-.421.707-.764.935-.342.229-.745.349-1.156.347z" fill="#29263b"/><path d="m301.354 102.517c.225 20.306-2.991 40.504-9.51 59.737-1.2-6.386-6.935-11.535-17.681-9.647 2.266-13.355 3.09-45.387-1.373-49.678s-93.04-8.24-93.04-8.24-1.613 8.48-3.261 20.53c-9.991 1.992-15.93-7.381-10.2-16.41-10.608-8.343-8.205-26.23 4.4-28.7-9.51-20.427 7.759-35.362 21.629-24.959.069-19.157 28.015-26.848 36.186-4.7 7.793-20.7 34.16-12.565 33.371 6.386 16.685-9.75 33.267 1.957 28.667 21.08 23.241-3.13 26.914 25.022 10.812 34.601z" fill="#ff6b55"/><path d="m273.67 174.037c-.055 0-.11-.005-.164-.016-.222-.043-.419-.173-.546-.36s-.176-.417-.134-.64c1.281-6.632 5.426-10.348 12.32-11.042.227-.023.453.045.629.189s.288.352.311.579c.023.226-.045.453-.189.629s-.352.288-.579.311c-6.135.618-9.671 3.778-10.806 9.659-.039.195-.144.37-.297.496-.154.126-.346.195-.545.195z" fill="#29263b"/><path clip-rule="evenodd" d="m242.849 133.268c2.4 0 4.347 4.024 4.347 8.978s-1.947 8.977-4.347 8.977-4.346-4.023-4.346-8.977 1.946-8.978 4.346-8.978z" fill="#29263b" fill-rule="evenodd"/><path clip-rule="evenodd" d="m189.01 130.545c2.4 0 4.346 4.021 4.346 8.975s-1.946 8.977-4.346 8.977-4.347-4.02-4.347-8.977 1.947-8.975 4.347-8.975z" fill="#29263b" fill-rule="evenodd"/><path d="m384.3 422.868c-.124 0-.247-.026-.36-.078s-.213-.128-.294-.222l-6.77-7.947c-.148-.173-.22-.398-.202-.625s.126-.437.299-.585.398-.22.625-.202.437.126.585.299l6.77 7.947c.106.125.174.277.196.44.022.162-.002.327-.071.476-.068.149-.178.275-.316.363-.138.089-.298.136-.462.136z" fill="#e58b59"/><path d="m343.857 223.3c18.643 4.085 71.72 76.423 71.72 76.423-26.539 5.149-43.6 20.187-53.043 43.086l-20.84-23.037-.068 20.119c-60.493 6.832-120.677 6.18-180.38-3.365h-.618l.206-27.5c-8.361 4.373-16.957 8.282-25.749 11.708 4.394-24.857-2.369-53.867-14.626-74.741 13.527-6.866 44.906-22.041 57.335-22.453 4.292-.054 8.58.315 12.8 1.1-3.776 69.626 93.589 70.93 110.343-.858 15.798-1.55 33.719-2.511 42.92-.482z" fill="#6789ed"/><path d="m341.626 339.888-.138 42.949h-.274c-57.438 10.609-132.556 6.867-180.621-2.369h-.274l.309-43.945h.618c59.703 9.545 119.887 10.197 180.38 3.365z" fill="#c6d3f8"/><path d="m341.488 382.837-.343 96.13c-51.689 14.54-112.193 14.769-181.513.686l.687-99.185h.274c48.065 9.236 123.183 12.978 180.621 2.369z" fill="#6789ed"/><path d="m216.623 207.408c11.657-.026 22.06-1.235 31.035-6.366-7.931 13.916-17.869 19.661-30.2 21.1z" fill="#f08855"/><path d="m362.534 342.806s24.891 25.1 26.913 32.159-11.865 39.307-11.865 39.307-22.855-17.918-34.209-18.763c-25.484-1.9-39.89 38.236-26.61 40.848-1.635 8.958.5 13.393 9.688 13.455-2.187 9.5 1.919 13.359 10.427 13.723.9 9.52 13.125 8.009 28.042-11.508 0 0 15.072 11.254 28.423 9.506 16.754-2.194 60.428-63.6 59.347-88.456s-37.113-73.357-37.113-73.357c-26.539 5.149-43.602 20.187-53.043 43.086z" fill="#ffa775"/><path d="m316.9 437.1c-.095 0-.189-.016-.278-.047-.215-.074-.392-.23-.492-.435-.1-.204-.115-.44-.041-.655 2.513-7.325 10.714-19.916 17.551-26.945.079-.081.173-.145.276-.19.104-.044.216-.068.328-.069.113-.002.225.019.33.061s.2.104.281.183.145.173.19.276c.044.104.068.216.069.328.002.113-.019.225-.061.33s-.104.2-.183.281c-6.694 6.881-14.712 19.173-17.158 26.3-.058.17-.167.317-.313.421-.145.105-.32.161-.499.161z" fill="#29263b"/><path d="m326.685 450.646c-.135 0-.267-.031-.387-.092-.121-.06-.225-.148-.305-.256-.08-.109-.133-.234-.155-.367-.023-.132-.014-.268.026-.397 2.258-7.3 10.824-20.823 16.976-26.8.163-.159.383-.247.611-.244s.445.096.605.26c.159.163.246.383.244.611-.003.227-.097.445-.26.604-5.883 5.72-14.381 19.126-16.532 26.081-.055.175-.165.327-.313.435s-.327.166-.51.165z" fill="#29263b"/><path d="m337.085 464.338c-.06 0-.12-.006-.179-.019-.11-.023-.215-.068-.308-.132-.093-.063-.172-.145-.234-.239-.061-.095-.103-.2-.124-.311s-.019-.225.004-.335c1.056-4.976 8.618-18.143 17.159-28.317.149-.163.356-.263.576-.278.221-.015.439.056.608.198.17.142.278.344.303.564.024.22-.037.44-.172.616-8.249 9.826-15.8 22.889-16.794 27.568-.04.193-.145.367-.298.491-.153.125-.344.194-.541.194z" fill="#29263b"/><path d="m389.9 375.93c-.196 0-.386-.068-.539-.191-.152-.123-.258-.295-.299-.487-.042-.192-.016-.392.072-.567s.233-.315.412-.396l13.89-6.282c.103-.046.214-.072.326-.076.113-.003.225.015.331.055.105.04.202.1.284.177s.148.17.195.272c.046.103.072.214.075.327.004.112-.015.225-.055.33-.039.105-.1.202-.177.284s-.169.149-.272.195l-13.89 6.283c-.111.05-.231.076-.353.076z" fill="#29263b"/><path d="m192.625 63.722c-10.4-8-17.853-16.446-26.642-2.678 16.2 7.381 15.072 30.143 5.8 32.752.171 8.652-3.125 15.347-7.451 17.51-.514 3.948-3.242 7.694-8.289 11.814-4.188 3.4-8.773 5.352-15.571 3.5-1.065 4.875-4.566 10.849-10.884 11.364-10.334 41.713-15.174 80.336-15.517 111.269 0 0 2.437-1.27 6.385-3.261 12.257 20.874 19.02 49.884 14.626 74.741-23.072 9.029-55.859 17.921-73.093 4.566-45.044-34.882 27.4-193.77 31.654-202.9 6.866-14.729 30.006-57.128 47.859-75.016 23.208-23.242 53.386-13.08 60.939 0 7.796 13.455-4.598 20.355-9.816 16.339z" fill="#ffa775"/><g fill="#29263b"><path d="m164.265 112.061h-.045c-.227-.012-.44-.113-.593-.282-.152-.169-.232-.391-.221-.618.847-16.341-3.517-25.053-16.1-32.146-.199-.1118-.345-.298-.407-.5177-.061-.2197-.033-.4549.079-.6538.111-.1989.298-.3453.517-.4069.22-.0616.455-.0334.654.0784 13.26 7.473 17.861 16.615 16.974 33.73-.011.22-.106.428-.266.579-.16.152-.372.237-.592.237z"/><path d="m171.771 94.761c-.218.0002-.427-.0823-.586-.2309s-.256-.352-.27-.5691c-.31-5.3294-2.047-10.4775-5.03-14.9048-2.983-4.4274-7.101-7.9712-11.924-10.2602-.104-.0477-.197-.1156-.274-.1997s-.137-.1828-.175-.2902c-.039-.1074-.056-.2215-.049-.3355.006-.114.034-.2256.084-.3283s.12-.1945.205-.2699c.086-.0754.186-.133.294-.1693.108-.0364.223-.0508.336-.0424.114.0084.225.0394.327.0913 5.098 2.4194 9.451 6.1653 12.603 10.8452 3.153 4.6799 4.989 10.1216 5.316 15.7548.015.2267-.062.45-.212.6206s-.361.2747-.588.2894c-.019.0007-.038.0004-.057-.001z"/><path d="m166.247 62.029c-.137-.0012-.272-.0355-.393-.1-2.233-1.1051-4.563-2.0022-6.961-2.68-.218-.0663-.401-.2165-.508-.4175-.107-.2011-.13-.4365-.064-.6545s.216-.4008.418-.508c.201-.1073.436-.1303.654-.064 2.499.7086 4.927 1.6459 7.254 2.8.171.0889.307.2327.386.4082.08.1755.098.3726.051.5596-.046.187-.153.3531-.305.4715-.152.1185-.339.1825-.532.1817z"/><path d="m140.517 127.535c-.051 0-.102-.005-.152-.014-.111-.02-.218-.061-.313-.122-.096-.061-.178-.14-.242-.233-.065-.093-.11-.198-.134-.309-.024-.11-.026-.225-.005-.336.932-6.4 1.008-12.896.228-19.317-.019-.176.018-.353.103-.507.086-.154.217-.279.376-.356s.337-.103.512-.075c.174.028.335.109.462.232 1.889 1.756 4.14 3.078 6.595 3.872.22.059.407.202.521.399s.145.432.086.651c-.058.22-.202.408-.399.522s-.431.145-.651.086c-2.05-.643-3.977-1.627-5.7-2.911.594 5.897.444 11.846-.448 17.706-.034.198-.137.378-.29.508-.154.131-.348.203-.549.204z"/><path d="m108.924 267.3c-.086 0-.171-.013-.253-.038-.108-.033-.208-.087-.295-.159-.086-.072-.158-.16-.211-.26-.052-.1-.085-.209-.095-.321-.011-.112.001-.225.034-.333l5.389-17.469c.072-.211.224-.386.423-.488.199-.101.43-.121.643-.055.214.065.393.212.5.408.108.196.134.426.075.641l-5.39 17.468c-.054.175-.163.329-.31.438-.148.109-.327.168-.51.168z"/></g></svg>