<svg height="64" viewBox="0 0 64 64" width="64" xmlns="http://www.w3.org/2000/svg"><g fill="none" fill-rule="evenodd"><path d="m17 8.99188419c0-1.10008726.9016273-1.99188419 2.0008642-1.99188419h18.9982716c1.1050468 0 2.0008642.89339733 2.0008642 1.99188419v13.00811581h-23z" fill="#fcc24c"/><path d="m25 12.0085302c0-1.1092806.9016273-2.0085302 2.0008642-2.0085302h18.9982716c1.1050468 0 2.0008642.9019504 2.0008642 2.0085302v9.9914698h-23z" fill="#ffdd95"/><g fill="#ed9111"><circle cx="29.5" cy="14.5" r="1.5"/><circle cx="41.5" cy="22.5" r="1.5"/><circle cx="35.5" cy="17.5" r="1.5"/><circle cx="44.5" cy="15.5" r="1.5"/></g><path d="m8 31.0081258c0-4.9750505 4.0304669-9.0081258 9.0002635-9.0081258h29.999473c4.9707083 0 9.0002635 4.0209279 9.0002635 9.0081258v21.9918742h-48z" fill="#80d25b"/><rect fill="#22ba8e" height="21" rx="2" width="4" x="30" y="28"/><path d="m28 33h8v3h-8z" fill="#fff"/><rect fill="#595959" height="4" rx="2" width="56" x="4" y="53"/></g></svg>