<svg height="64" viewBox="0 0 64 64" width="64" xmlns="http://www.w3.org/2000/svg"><g fill="none" fill-rule="evenodd"><g fill="#595959"><circle cx="24" cy="33" r="22" stroke="#595959" stroke-linecap="round" stroke-width="2"/><path d="m43 36 7 2v5l-9 2z"/><path d="m55.1761961 53.4545513c-4.2815846-2.3945935-7.1761961-6.9728982-7.1761961-12.2272756 0-5.2543775 2.8946115-9.8326822 7.1761961-12.2272757-.1159553.7253377-.1761961 1.4692717-.1761961 2.2272757 0 3.9173763 1.6089344 7.4589659 4.2020345 10-2.5931001 2.541034-4.2020345 6.0826236-4.2020345 10 0 .758004.0602408 1.501938.1761961 2.2272756z"/></g><circle cx="15" cy="25" fill="#fff" r="5"/><circle cx="15" cy="25" fill="#595959" r="2"/><path d="m2.03336187 34.2219475c.63405211 11.5818937 10.22640613 20.7780525 21.96663813 20.7780525 6.0523366 0 11.533849-2.443989 15.511469-6.398899-5.9733124-4.5048471-18.7772337-13.6108635-26.6420574-15.1910332-4.33970421-.8719165-8.01493622-.2364016-10.83604973.8118797z" fill="#fff" stroke="#595959" stroke-linecap="round" stroke-width="2"/><path d="m11 33v17m7-14v17m7-15v17" stroke="#595959" stroke-linecap="square" stroke-width="2"/><path d="m20 9.6891706s7.17933-11.0481536 12.0706064-6.65794681-12.0706064 6.65794681-12.0706064 6.65794681z" fill="#595959"/><path d="m6.12479001 9.6891706s7.16833509-11.1483082 12.05961149-6.7581014c4.8912764 4.39020679-12.05961149 6.7581014-12.05961149 6.7581014z" fill="#595959" transform="matrix(-1 0 0 1 25.195 0)"/></g></svg>